Coordinates
version=1
nRows=16
nColumns=40
inDegrees=yes

Units are S.I. units (second, meters, Newtons, ...)
Angles are in degrees.

endheader
time	pelvis_tilt	pelvis_list	pelvis_rotation	pelvis_tx	pelvis_ty	pelvis_tz	hip_flexion_r	hip_adduction_r	hip_rotation_r	knee_angle_r	knee_angle_r_beta	ankle_angle_r	subtalar_angle_r	mtp_angle_r	hip_flexion_l	hip_adduction_l	hip_rotation_l	knee_angle_l	knee_angle_l_beta	ankle_angle_l	subtalar_angle_l	mtp_angle_l	lumbar_extension	lumbar_bending	lumbar_rotation	arm_flex_r	arm_add_r	arm_rot_r	elbow_flex_r	pro_sup_r	wrist_flex_r	wrist_dev_r	arm_flex_l	arm_add_l	arm_rot_l	elbow_flex_l	pro_sup_l	wrist_flex_l	wrist_dev_l
     39.89000000	     -4.03552782	     -4.63969032	      4.27697145	      1.11925845	      0.92854454	      0.48653075	      8.22487147	     -2.61429688	    -14.60444932	     31.95044917	     31.95044917	     13.47882685	     -7.86080029	     -6.55766722	     22.92353029	     -5.95612316	     -3.99187325	     23.68820619	     23.68820619	      8.24127346	    -10.91654313	      2.18994591	    -10.20201235	      3.75621477	      2.08639865	     13.00412949	    -17.02318562	      1.22836869	     57.57005069	     45.35467797	      0.00000000	      0.00000000	      2.58648438	    -11.27541399	    -14.67170096	     36.56826700	     46.21164984	      0.00000000	      0.00000000
     39.90342857	     -3.95942417	     -4.54887690	      4.02425355	      1.11884935	      0.92908430	      0.48422411	      9.93758582	     -3.31409152	    -13.85325340	     35.62787193	     35.62787193	     12.18370730	     -9.38513456	     -7.23717360	     22.34938734	     -5.82260534	     -4.35933760	     23.58019718	     23.58019718	      8.47296386	    -10.87989101	      1.98307605	    -10.42981276	      3.57569164	      2.03916397	     12.31274515	    -16.95101546	      1.32905672	     56.92603043	     45.37040276	      0.00000000	      0.00000000	      3.00880386	    -11.47081947	    -14.54040510	     37.06587775	     46.20559648	      0.00000000	      0.00000000
     39.91685714	     -3.95539995	     -4.46414572	      3.72630489	      1.11839366	      0.92934632	      0.48221025	     11.87912204	     -3.92033667	    -12.94135996	     39.42099383	     39.42099383	     10.52281657	    -11.17914721	     -7.92334786	     21.84988390	     -5.69144018	     -4.65383533	     23.47063286	     23.47063286	      8.72649079	    -10.98220411	      1.74855757	    -10.51200288	      3.35374398	      2.02828675	     11.50584827	    -16.84269245	      1.46983188	     56.13957876	     45.38890072	      0.00000000	      0.00000000	      3.32949775	    -11.72766138	    -14.37392639	     37.64974463	     46.19534131	      0.00000000	      0.00000000
     39.93028571	     -3.87802806	     -4.48237919	      3.46748641	      1.11795245	      0.92960615	      0.48031778	     13.63241425	     -4.24879854	    -11.96220667	     42.72694587	     42.72694587	      7.06064632	    -14.35754200	    -12.11652635	     21.25814986	     -5.59510560	     -4.61377928	     23.26627484	     23.26627484	      8.58154391	    -11.63604136	      0.73427983	    -10.65038521	      3.25204593	      1.53846293	     11.50317623	    -16.37561556	      1.70199883	     53.68914317	     45.46867036	      0.00000000	      0.00000000	      2.61646926	    -12.47769508	    -12.47166686	     40.05301811	     46.01245599	      0.00000000	      0.00000000
     39.94371429	     -3.65650683	     -4.33763104	      3.23100992	      1.11750243	      0.92986636	      0.47834376	     15.44343799	     -4.93171301	    -11.36832013	     46.54824708	     46.54824708	      5.13935264	    -15.64189464	    -12.01255156	     20.63206283	     -5.38428397	     -4.79044990	     23.35710301	     23.35710301	      8.93632791	    -11.83159911	      0.60745978	    -10.97649550	      3.03638461	      1.36401615	     10.71361004	    -16.34324415	      1.84161137	     53.22227717	     45.47513329	      0.00000000	      0.00000000	      3.08328911	    -12.76020916	    -12.45965054	     40.34512714	     46.02293801	      0.00000000	      0.00000000
     39.95714286	     -3.58135594	     -4.29159074	      2.97280319	      1.11697117	      0.92988078	      0.47655174	     17.44837455	     -5.37367146	    -10.65621585	     50.21464775	     50.21464775	      2.96766229	    -17.22833846	    -11.43688475	     20.17047722	     -5.22911625	     -4.76881223	     23.41330114	     23.41330114	      9.24325667	    -12.30815663	      0.57510109	    -11.07655422	      2.92848960	      1.32587865	      9.75294890	    -16.32367686	      1.97514604	     52.46249638	     45.49140699	      0.00000000	      0.00000000	      3.45860718	    -13.00529129	    -12.37183120	     40.79519178	     46.02652667	      0.00000000	      0.00000000
     39.97057143	     -3.42991148	     -4.28296358	      2.76538238	      1.11640364	      0.92998692	      0.47474027	     19.40086541	     -5.75453693	    -10.10187726	     53.84527992	     53.84527992	      1.59343446	    -18.07585151	     -8.13014455	     19.68853942	     -5.01154654	     -4.32723582	     23.53356334	     23.53356334	      9.45326794	    -13.45925462	      0.85225189	    -11.26402513	      2.87314617	      1.29159863	      9.10079707	    -16.25066760	      1.87507852	     50.65828427	     45.55602090	      0.00000000	      0.00000000	      3.67417242	    -13.35598508	    -11.60709299	     41.91816972	     45.97987028	      0.00000000	      0.00000000
     39.98400000	     -3.31797922	     -4.16527453	      2.53670047	      1.11586492	      0.92995327	      0.47295167	     21.29251007	     -6.32030904	     -9.70719549	     57.13592655	     57.13592655	     -0.12161205	    -18.66784152	     -6.41018485	     19.21956422	     -4.79171478	     -4.37089074	     23.63922108	     23.63922108	      9.81971933	    -13.73900101	      0.82354963	    -11.36829044	      2.74889872	      1.02449454	      8.25371800	    -16.12927211	      1.85366101	     49.86513152	     45.58011377	      0.00000000	      0.00000000	      3.92153125	    -13.65668021	    -11.43027758	     42.27941646	     45.97651386	      0.00000000	      0.00000000
     39.99742857	     -3.07916246	     -4.21057879	      2.37467883	      1.11527496	      0.93016297	      0.47139024	     23.17380338	     -6.43488300	     -9.15198852	     60.47462963	     60.47462963	      0.36070629	    -18.76599537	      2.19735517	     18.72758011	     -4.71879541	     -4.15901453	     23.91503235	     23.91503235	     10.32448564	    -14.27204802	      1.33597658	    -11.63513385	      2.78919918	      0.69395586	      7.91406154	    -15.74936912	      1.04659683	     47.68268340	     45.68628506	      0.00000000	      0.00000000	      4.00514662	    -14.22606749	    -10.26335061	     43.18766870	     45.92010802	      0.00000000	      0.00000000
     40.01085714	     -2.95144618	     -4.14331786	      2.15011956	      1.11472800	      0.93021053	      0.46971483	     24.78503197	     -6.89003626	     -8.96520873	     62.92920519	     62.92920519	     -1.00361904	    -19.11696644	      3.55316712	     18.25971133	     -4.53857488	     -4.12886813	     24.03525456	     24.03525456	     10.69215415	    -14.66401252	      1.39478807	    -11.76344887	      2.74354484	      0.65150202	      6.90788811	    -15.83070312	      0.97029071	     46.82042605	     45.71390175	      0.00000000	      0.00000000	      4.43691462	    -14.35850115	    -10.18820352	     43.55887870	     45.93045742	      0.00000000	      0.00000000
     40.02428571	     -2.76711997	     -4.21315589	      1.95903327	      1.11407125	      0.93050862	      0.46832389	     26.39999838	     -6.91898665	     -8.61698674	     65.25501074	     65.25501074	     -0.30299478	    -19.21188649	     10.68689364	     17.78391196	     -4.50439799	     -3.98716687	     24.22316304	     24.22316304	     11.23794958	    -15.03890818	      2.13270248	    -11.94030141	      2.85549617	      0.50363779	      6.47767276	    -15.47941816	     -0.25373541	     44.49949427	     45.84276771	      0.00000000	      0.00000000	      4.72427127	    -14.74487972	     -9.28862370	     44.03284473	     45.90515665	      0.00000000	      0.00000000
     40.03771429	     -2.65755563	     -4.18843639	      1.70759473	      1.11344481	      0.93070214	      0.46687803	     27.72354264	     -7.19482608	     -8.52754566	     66.76618036	     66.76618036	     -0.98725416	    -19.36017289	     11.45895792	     17.28773891	     -4.39803649	     -4.06486826	     24.24284840	     24.24284840	     11.56637465	    -15.28076585	      2.17491036	    -12.05289508	      2.87726017	      0.49097764	      5.53384775	    -15.56535657	     -0.38771419	     43.64057322	     45.87330904	      0.00000000	      0.00000000	      5.13466409	    -14.81291388	     -9.23381215	     44.38314678	     45.91649837	      0.00000000	      0.00000000
     40.05114286	     -2.40424917	     -4.41415815	      1.48325963	      1.11286186	      0.93134503	      0.46563892	     28.59317151	     -7.15207380	     -8.69977586	     67.58086235	     67.58086235	     -1.41109773	    -19.41875477	     11.56275850	     16.62067183	     -4.59561185	     -4.19150167	     24.20493700	     24.20493700	     11.84805013	    -15.45482898	      2.15856204	    -12.34397265	      3.22579951	      0.01917935	      4.94439148	    -15.61561666	     -0.41106862	     43.34891935	     45.88155130	      0.00000000	      0.00000000	      5.33168640	    -14.87139755	     -9.22792763	     44.46224586	     45.91950891	      0.00000000	      0.00000000
     40.06457143	     -2.53815735	     -4.24153021	      1.15428357	      1.11193057	      0.93142134	      0.46460703	     30.03901270	     -7.23901775	     -8.32104740	     68.27203921	     68.27203921	     -0.99851362	    -19.47779602	     13.31494150	     16.27265977	     -4.32869039	     -4.27538763	     23.99364434	     23.99364434	     12.10588391	    -15.60087172	      2.40376169	    -12.28593106	      3.02230156	      0.76268384	      3.77559769	    -15.78111094	     -0.78501016	     41.23307445	     45.97099463	      0.00000000	      0.00000000	      5.98997528	    -14.80213303	     -9.01140419	     45.21261370	     45.92284214	      0.00000000	      0.00000000
     40.07800000	     -2.41962060	     -4.48063860	      0.87139928	      1.11114920	      0.93208716	      0.46400396	     30.96992943	     -6.75137232	     -8.21644060	     68.34308437	     68.34308437	      0.35711142	    -19.45865074	     17.34352386	     15.72441440	     -4.58937858	     -4.46572713	     23.91974381	     23.91974381	     12.56300908	    -15.54082332	      2.91101067	    -12.37388821	      3.29239495	      0.60632055	      4.26784615	    -15.17173793	     -2.80358178	     37.10256231	     46.22813479	      0.00000000	      0.00000000	      6.09846297	    -15.20886734	     -7.82550753	     45.65074398	     45.85723415	      0.00000000	      0.00000000
     40.09142857	     -2.40203200	     -4.64058126	      0.57549142	      1.11029926	      0.93268989	      0.46336963	     31.71337610	     -6.36201955	     -8.20500709	     67.65959217	     67.65959217	      0.68854144	    -19.44117205	     17.11889256	     15.20500163	     -4.75923352	     -4.72017539	     23.68753101	     23.68753101	     12.84819734	    -15.42834763	      3.03623855	    -12.44079339	      3.52449612	      0.36770852	      4.42484739	    -14.63617600	     -5.38231416	     34.44618448	     46.44940637	      0.00000000	      0.00000000	      6.03077450	    -15.52708095	     -7.04511200	     46.37544654	     45.87209382	      0.00000000	      0.00000000
